<svg width="800" height="600" viewBox="0 0 800 600" xmlns="http://www.w3.org/2000/svg">
  <!-- Cuerpo principal trasero -->
  <rect x="200" y="150" width="400" height="300" fill="#2b2b2b" rx="20"/>
  
  <!-- Ãrea de carga -->
  <rect x="220" y="170" width="360" height="260" fill="#1a1a1a" rx="10"/>
  
  <!-- Puertas traseras -->
  <path d="M220 170 L400 170 L400 430 L220 430 Z" fill="#424242"/>
  <path d="M400 170 L580 170 L580 430 L400 430 Z" fill="#424242"/>
  
  <!-- Manijas de las puertas -->
  <rect x="380" y="280" width="40" height="10" fill="#666666" rx="2"/>
  <rect x="380" y="300" width="40" height="10" fill="#666666" rx="2"/>
  
  <!-- Sistema de escape -->
  <path d="M180 400 L220 400 L220 450 L180 450 Z" fill="#424242"/>
  <circle cx="200" cy="425" r="10" fill="#1a1a1a"/>
  
  <!-- Luces traseras -->
  <rect x="220" y="180" width="40" height="20" fill="#ff0000" rx="5"/>
  <rect x="540" y="180" width="40" height="20" fill="#ff0000" rx="5"/>
  
  <!-- Ruedas traseras -->
  <circle cx="250" cy="500" r="50" fill="#1a1a1a" stroke="#424242" stroke-width="10"/>
  <circle cx="550" cy="500" r="50" fill="#1a1a1a" stroke="#424242" stroke-width="10"/>
</svg>